<svg
  xmlns="http://www.w3.org/2000/svg"
  viewBox="0 0 512 512"
  width="512"
  height="512"
>
  <!-- Background Transparent -->

  <!-- Monitor -->
  <rect x="96" y="160" rx="16" ry="16" width="320" height="200" fill="#1e293b"/>
  <rect x="112" y="176" rx="12" ry="12" width="288" height="152" fill="#ffffff"/>

  <!-- Chart bars -->
  <rect x="160" y="240" width="24" height="56" rx="4" fill="#60a5fa"/>
  <rect x="200" y="216" width="24" height="80" rx="4" fill="#3b82f6"/>
  <rect x="240" y="256" width="24" height="40" rx="4" fill="#60a5fa"/>
  <rect x="280" y="200" width="24" height="96" rx="4" fill="#2563eb"/>

  <!-- Shop roof -->
  <path
    d="M112 160 L256 88 L400 160 Z"
    fill="#fb923c"
  />

  <!-- Awning -->
  <rect x="112" y="160" width="288" height="32" fill="#f97316"/>
  <g fill="#ffffff">
    <rect x="112" y="160" width="36" height="32"/>
    <rect x="184" y="160" width="36" height="32"/>
    <rect x="256" y="160" width="36" height="32"/>
    <rect x="328" y="160" width="36" height="32"/>
  </g>

  <!-- Arrow up -->
  <path
    d="M300 64 L360 24 L420 64 L388 64 L388 104 L332 104 L332 64 Z"
    fill="#f97316"
  />

  <!-- Box -->
  <rect x="72" y="312" width="72" height="72" rx="8" fill="#fb923c"/>
  <path d="M72 336 L144 336" stroke="#1e293b" stroke-width="4"/>

  <!-- Clipboard -->
  <rect x="368" y="296" width="72" height="96" rx="10" fill="#e5e7eb"/>
  <rect x="380" y="320" width="48" height="8" rx="4" fill="#22c55e"/>
  <rect x="380" y="340" width="48" height="8" rx="4" fill="#22c55e"/>
  <rect x="380" y="360" width="48" height="8" rx="4" fill="#22c55e"/>

  <!-- Stand -->
  <rect x="232" y="360" width="48" height="32" rx="8" fill="#334155"/>
  <rect x="208" y="392" width="96" height="16" rx="8" fill="#1e293b"/>
</svg>
